<svg height="80" viewBox="0 0 64 64" width="80" xmlns="http://www.w3.org/2000/svg"><g id="Picture_optimize" data-name="Picture optimize"><path d="m9 3h52v44h-52z" fill="#006df0"/><path d="m59 3h2v44h-2z" fill="#005ece"/><path d="m13 7h44v28h-44z" fill="#9bc9ff"/><path d="m46 21-7.12 9.06 4.12 4.94h14z" fill="#4e901e"/><circle cx="39" cy="14" fill="#ed1c24" r="3"/><path d="m33.65 50a3.228 3.228 0 0 1 -.24.58l2.37 2.37-2.83 2.83-2.37-2.37a3.228 3.228 0 0 1 -.58.24v3.35h-4v-3.35a3.228 3.228 0 0 1 -.58-.24l-2.37 2.37-2.83-2.83 2.37-2.37a3.228 3.228 0 0 1 -.24-.58h-3.35v-4h3.35a3.228 3.228 0 0 1 .24-.58l-2.37-2.37 2.83-2.83 2.37 2.37a3.228 3.228 0 0 1 .58-.24v-3.35h4v3.35a3.228 3.228 0 0 1 .58.24l2.37-2.37 2.83 2.83-2.37 2.37a3.228 3.228 0 0 1 .24.58h3.35v4z" fill="#ffcd00"/><circle cx="28" cy="48" fill="#f1f2f2" r="3"/><path d="m43 35h-30l15-18z" fill="#5eac24"/><path d="m14 24.58v8.42l-3 2-3-2v-8.42a8 8 0 0 0 -2.316 13.394 3.946 3.946 0 0 1 1.316 2.957v16.069a4 4 0 0 0 8 0v-16.069a3.946 3.946 0 0 1 1.316-2.957 8 8 0 0 0 -2.316-13.394z" fill="#ed1c24"/><path d="m14 24.58v1.177a7.993 7.993 0 0 1 .316 12.217 3.946 3.946 0 0 0 -1.316 2.957v16.069a3.992 3.992 0 0 1 -3 3.859 3.953 3.953 0 0 0 5-3.859v-16.069a3.946 3.946 0 0 1 1.316-2.957 8 8 0 0 0 -2.316-13.394z" fill="#d80027"/><path d="m11 58a1 1 0 0 1 -1-1v-16a1 1 0 0 1 2 0v16a1 1 0 0 1 -1 1z" fill="#ab2300"/></g></svg>